# xmcd
#
# Track frame offsets:
#	150
#	34626
#	64453
#	80992
#	98690
#	118042
#	137732
#	157229
#	178288
#	199799
#	222525
#	248237
#	283666
#	305513
#
# Disc length: 4610 seconds
#
# Revision: 3
# Processed by: cddbd v1.5.1PL0 Copyright (c) Steve Scherf et al.
# Submitted via: EasyCDDAExtractor 8.0.2.1
#
DISCID=de12000e
DTITLE=Various Artist - 14
DYEAR=2000
DGENRE=Blues
TTITLE0=Stan Webb`s Chicken Schack - The Trill Has Gone
TTITLE1=Samuel Eddy - Blues On Your Doorstep
TTITLE2=Lesley West - Dragon Lady
TTITLE3=Mountain - Man`s World
TTITLE4=Blues Underground - St. James Infirmary
TTITLE5=Davey Pattison - Same Old Blues
TTITLE6=Tinsley Ellis - To The Devil For A Dime
TTITLE7=Snatch It Bach - Get Out My Life Woman
TTITLE8=Vargas Blues Band - Del Sur
TTITLE9=Hamburg Blues Band - Make Love Strong
TTITLE10=Jimmy Spacek - Blues For The City
TTITLE11=Julian Sas - Make Up, Your Mind
TTITLE12=Robin Trower - Extermination Blues
TTITLE13=Danny Harris Band - Misery Tears
EXTD=
EXTT0=
EXTT1=
EXTT2=
EXTT3=
EXTT4=
EXTT5=
EXTT6=
EXTT7=
EXTT8=
EXTT9=
EXTT10=
EXTT11=
EXTT12=
EXTT13=
PLAYORDER=
